<svg xmlns="http://www.w3.org/2000/svg" fill="none" viewBox="0 0 128 128">
    <g>
        <path d="M47.8,45.6c-1.7,2.7-3.4,5.3-5.1,8c-3.3,5.2-5.9,10.8-6.9,17c-1.2,7.6,2.6,14.9,9.2,17.3c4.2,1.6,8.5,1.1,12.6-0.3
            c12.3-4.3,21.8-12.1,27.9-23.6c3-5.6,4-12.4,3-18.5c0.1-0.1,0.2-0.2,0.3-0.3c0.5,0.6,0.9,1.2,1.4,1.8c14,15.2,14.4,38.7,1,54.4
            c-13.7,16.1-39,18.6-55.2,5.2c-8.1-6.7-12.6-15.4-12.4-26.1c0.2-6.3,2.4-11.9,5.7-17.2C34,55.8,40.3,50.1,47.8,45.6z"/>
        <path d="M65.9,14.2c4.9,3.4,8.9,7.6,11.8,12.8c6.4,11.3,6.8,22.8,1,34.4c-4.8,9.8-12,17.4-21.8,22.4c-4.7,2.4-9.2,2-12.2-1.1
            c-2.3-2.4-3.1-5.3-3.2-8.6c-0.1-5.7,2-10.7,5.1-15.3c3.6-5.4,7.7-10.5,11.4-15.8c4.2-6.1,7.1-12.8,7.8-20.2
            C66.1,20.1,65.9,17.3,65.9,14.2z"/>
    </g>
    <style>
        path { fill: #000; }
        @media (prefers-color-scheme: dark) {
            path { fill: #FFF; }
        }
    </style>
</svg>
