<svg xmlns="http://www.w3.org/2000/svg" version="1.1" xmlns:xlink="http://www.w3.org/1999/xlink" width="64" height="64"><svg width="64" height="64" viewBox="0 0 64 64" xmlns="http://www.w3.org/2000/svg" aria-hidden="true">
  <!-- Background circle -->
  <circle cx="32" cy="32" r="32" fill="#fff"></circle>
  <!-- Foreground shapes -->
  <path d="M38.3,40.6v-4.5h4.2v4.5h-4.2Z" fill="#000"></path>
  <path d="M22.9,40.6h-1.4v-4.5h4.2v4.5h-2.8Z" fill="#000"></path>
  <path d="M55.1,21c0-2.5-2.9-4.8-5.8-4.4-1.9.2-3.1,1.8-4.5,3,0,0-2.8,2.4-3.2,2.8-3.2-1.4-6.4-2.2-9.6-2.2s-6.4.8-9.6,2.2c-.3-.4-3.2-2.8-3.2-2.8-1.4-1.2-2.6-2.7-4.5-2.9-2.9-.4-5.8.9-5.8,4.4v8.4c0,2.5,4.5,2.5,4.5,0v-9s6.3,5.4,8.4,7.1c2.8-1.9,6.5-2.9,10.2-2.9s7.4,1,10.2,2.9c2.2-1.7,8.4-7.1,8.4-7.1v9.1c0,2.3,4.5,2.3,4.5-.1v-8.6Z" fill="#000"></path>
  <path d="M50.6,36.2c-.7,8.8-9,13.9-17.2,11.3-.5-.2-1-.4-1.5-.5-.5,0-1,.3-1.5.5-8.3,2.7-16.5-2.4-17.2-11.3h-4.3c0,2.3.5,4.4,1.4,6.4,3.3,7.3,11.9,11.3,19.7,9.5,1.3-.3,1.7-.4,2-.4s.7,0,2,.4c7.8,1.8,16.4-2.2,19.7-9.5.9-2.1,1.4-4.2,1.4-6.4h-4.5Z" fill="#000"></path>
</svg><style>@media (prefers-color-scheme: light) { :root { filter: none; } }
@media (prefers-color-scheme: dark) { :root { filter: none; } }
</style></svg>